<svg id="_x3C_Layer_x3E_" height="512" viewBox="0 0 32 32" width="512" xmlns="http://www.w3.org/2000/svg"><g id="heart_x2C__love_x2C__care"><g id="XMLID_1518_"><g id="XMLID_29_"><g><path d="m23.5 31c.276 0 .5-.224.5-.5v-3.795l3.371-2.642c.422-.336.988-.995 1.208-1.52l2.38-5.533c.027-.062.041-.128.041-.197v-4.819c0-.622-.705-1.08-1.386-1.164-.856-.106-1.905.352-2.304 1.947-.207.829-.253 1.53-.293 2.148-.018.275.189.534.465.553.279.001.512-.171.53-.445.041-.618.083-1.271.269-2.014.125-.503.396-1.119.973-1.196.379-.056.708.152.762.246l-.016 4.641-2.342 5.443c-.146.348-.599.88-.908 1.125l-3.56 2.79c-.119.095-.19.241-.19.394v4.038c0 .276.224.5.5.5z" fill="rgb(0,0,0)"/></g></g><g id="XMLID_1605_"><g><path d="m8.5 31c-.276 0-.5-.224-.5-.5v-3.795l-3.371-2.642c-.422-.336-.988-.995-1.208-1.52l-2.38-5.533c-.027-.062-.041-.128-.041-.197v-4.819c0-.622.705-1.08 1.386-1.164.856-.106 1.905.352 2.304 1.947.207.829.253 1.53.293 2.148.018.275-.189.534-.465.553-.279.001-.512-.171-.53-.445-.041-.618-.083-1.271-.269-2.014-.125-.503-.396-1.119-.973-1.196-.379-.056-.708.152-.762.246l.016 4.641 2.342 5.443c.146.348.599.88.908 1.125l3.56 2.79c.119.095.19.241.19.394v4.038c0 .276-.224.5-.5.5z" fill="rgb(0,0,0)"/></g></g><g id="XMLID_1602_"><g><path d="m14.5 31c-.276 0-.5-.224-.5-.5v-5.463c0-2.107-1.455-3.944-3.539-4.468-.268-.067-.43-.34-.363-.607s.339-.43.607-.363c2.529.636 4.295 2.872 4.295 5.438v5.463c0 .276-.224.5-.5.5z" fill="rgb(0,0,0)"/></g></g><g id="XMLID_1601_"><g><path d="m8.762 22.417c-.128 0-.256-.049-.354-.146l-4.387-4.38c-.094-.094-.146-.221-.146-.354s.053-.26.146-.354c.175-.175.707-.707 1.532-.887.717-.157 1.837-.073 3.117 1.207l2.254 2.25c.196.194.196.511.001.707-.195.195-.512.195-.707 0l-2.255-2.25c-1.026-1.025-1.983-1.242-2.852-.644l4.002 3.996c.195.194.195.512 0 .707-.095.099-.223.148-.351.148z" fill="rgb(0,0,0)"/></g></g><g id="XMLID_1532_"><g id="XMLID_1572_"><g><path d="m17.5 31c-.276 0-.5-.224-.5-.5v-5.463c0-2.566 1.766-4.802 4.295-5.438.268-.064.539.096.607.363.067.268-.095.54-.363.607-2.084.524-3.539 2.361-3.539 4.468v5.463c0 .276-.224.5-.5.5z" fill="rgb(0,0,0)"/></g></g><g id="XMLID_1568_"><g><path d="m23.238 22.417c-.128 0-.256-.049-.354-.146-.195-.195-.195-.513 0-.707l4.002-3.996c-.87-.599-1.825-.382-2.851.644l-2.255 2.25c-.195.195-.512.195-.707 0-.195-.196-.195-.513.001-.707l2.255-2.25c1.279-1.28 2.399-1.364 3.117-1.207.825.18 1.357.712 1.532.887.094.094.146.221.146.354s-.053.26-.146.354l-4.387 4.38c-.097.095-.225.144-.353.144z" fill="rgb(0,0,0)"/></g></g></g><g id="XMLID_1519_"><g><path d="m23.238 22.417c-.128 0-.256-.049-.354-.146-.195-.195-.195-.513 0-.707l4.002-3.996c-.87-.599-1.825-.382-2.851.644l-2.255 2.25c-.195.195-.512.195-.707 0-.195-.196-.195-.513.001-.707l2.255-2.25c1.279-1.28 2.399-1.364 3.117-1.207.825.18 1.357.712 1.532.887.094.094.146.221.146.354s-.053.26-.146.354l-4.387 4.38c-.097.095-.225.144-.353.144z" fill="rgb(0,0,0)"/></g></g><g id="XMLID_1520_"><g><path d="m16 19c-.081 0-.162-.02-.236-.059-.364-.195-8.93-4.839-8.93-10.633 0-2.891 2.351-5.243 5.241-5.243 1.512 0 2.936.65 3.925 1.768.988-1.117 2.412-1.768 3.924-1.768 2.891 0 5.242 2.353 5.242 5.243 0 5.794-8.566 10.438-8.93 10.633-.074.039-.155.059-.236.059zm-3.925-14.935c-2.338 0-4.241 1.903-4.241 4.243 0 4.703 6.802 8.837 8.166 9.618 1.363-.781 8.166-4.92 8.166-9.618 0-2.34-1.903-4.243-4.242-4.243-1.407 0-2.719.696-3.51 1.862-.186.273-.642.273-.827 0-.792-1.165-2.105-1.862-3.512-1.862z" fill="rgb(0,0,0)"/></g></g><g id="XMLID_1282_"><g id="XMLID_1261_"><g id="XMLID_1280_"><g id="XMLID_1281_"><g><path d="m27.031 6.124c-.231 0-.438-.161-.489-.396-.057-.271.115-.536.385-.594l1.469-.313c.268-.054.535.115.593.385.057.271-.115.536-.385.594l-1.469.313c-.035.007-.07.011-.104.011z" fill="rgb(0,0,0)"/></g></g></g><g id="XMLID_1263_"><g id="XMLID_1278_"><g><path d="m26.197 3.839c-.149 0-.296-.066-.395-.192-.17-.218-.131-.531.086-.701l1.184-.925c.217-.173.532-.131.702.086.17.218.131.531-.086.701l-1.184.925c-.091.072-.2.106-.307.106z" fill="rgb(0,0,0)"/></g></g></g></g><g id="XMLID_12_"><g id="XMLID_987_"><g id="XMLID_1152_"><g><path d="m4.969 6.124c-.035 0-.069-.004-.104-.011l-1.469-.312c-.27-.058-.442-.323-.385-.594.058-.27.323-.438.593-.385l1.469.313c.27.058.442.323.385.594-.05.234-.258.395-.489.395z" fill="rgb(0,0,0)"/></g></g></g><g id="XMLID_15_"><g id="XMLID_939_"><g><path d="m5.804 3.839c-.107 0-.216-.034-.307-.105l-1.184-.925c-.218-.17-.256-.484-.086-.702.168-.217.482-.258.701-.087l1.185.925c.218.17.256.484.086.702-.099.125-.246.192-.395.192z" fill="rgb(0,0,0)"/></g></g></g></g></g></g></g></svg>